<?xml version="1.0" standalone="no"?><!DOCTYPE svg PUBLIC "-//W3C//DTD SVG 1.1//EN" "http://www.w3.org/Graphics/SVG/1.1/DTD/svg11.dtd"><svg t="1508645047406" class="icon" style="" viewBox="0 0 1024 1024" version="1.1" xmlns="http://www.w3.org/2000/svg" p-id="1770" xmlns:xlink="http://www.w3.org/1999/xlink" width="64" height="64"><defs><style type="text/css"></style></defs><path d="M481.03 994.386l-2.32-0.348-2.135-0.23c-52.619-7.148-102.436-22.83-148.101-45.656l-1.828-0.952-2.637-1.372c-63.652-32.574-117.76-78.536-159.795-133.356-42.107-54.799-72.474-119.03-87.465-189l-0.645-3.036-0.343-1.54a455.742 455.742 0 0 1-7.501-49.69l3.753-42.153c3.743-42.107 14.254-78.725 30.838-109.46 30.97-55.225 81.274-91.434 146.718-105.75l-12.298 48.912a1425.952 1425.952 0 0 0-47.555 16.005c-6.487 15.519-12.006 31.688-16.48 48.323-4.686 17.725-8.142 35.435-10.277 53.033l-0.368 2.975h93.588c1.905-29.845 5.177-59.7 9.749-89.657l69.621-19.732c-6.66 36.603-11.35 73.062-13.788 109.389H504.1V323.784l196.644-55.89-18.55-22.354L501.192 50.534c32.573-2.723 65.802-2.063 99.21 2.15l2.34 0.354 2.135 0.297c105.395 14.198 199.828 63.084 271.375 134.656 63.98 63.97 109.763 146.074 128.968 237.932l0.65 6.773a470.384 470.384 0 0 1 4.762 149.648l-0.302 2.324-0.302 2.135c-7.087 52.547-22.836 102.436-45.656 148.035l-0.952 1.9-1.3 2.605c-32.594 63.616-78.592 117.786-133.422 159.81-54.8 42.103-119.025 72.546-188.928 87.517l-2.965 0.594-1.193 0.236 1.24 0.84-0.83 0.23c-50.058 10.22-102.308 12.544-154.993 5.816z m95.477-758.293L377.349 25.805l-16.353 64.819C139.536 92.099 14.74 279.316 9.523 521.503c17.3-194.995 155.054-282.266 312.883-277.755l-17.469 69.509 271.57-77.164zM160.952 546.775c1.26 19.625 3.927 38.835 7.962 57.493l0.471 2.385 0.358 1.3c3.815 17.004 8.92 33.66 14.992 49.875 26.972 9.748 53.918 18.56 80.732 26.404-7.301-45.614-10.947-91.387-11.172-137.467h-93.343v0.01z m67.994 194.77a312.846 312.846 0 0 0 10.01 13.686 381.9 381.9 0 0 0 32.752 37.33c8.259 8.197 16.83 16.056 25.738 23.48-6.528-19.86-12.247-39.829-17.228-59.812a1324.728 1324.728 0 0 1-51.272-14.684z m159.81 130.32c16.774 7.188 34.386 13.378 52.573 18.252a379.269 379.269 0 0 0 53.084 10.286c3.2 0.343 6.477 0.722 9.702 1.02V792.186c-50.242-2.555-100.787-9.093-151.495-19.19 9.733 33.111 21.754 66.053 36.136 98.867z m181.1 30.013c17.224-1.3 34.11-3.804 50.652-7.378l2.437-0.579 1.296-0.225c14.197-3.23 28.124-7.265 41.743-12.13 15.145-33.407 27.766-66.954 38.108-100.715-44.523 7.614-89.298 11.72-134.241 12.483l0.005 108.544z m184.71-65.219c5.764-3.922 11.34-8.028 16.89-12.175 13.153-10.112 25.63-21.11 37.381-32.83 15.217-15.221 29.128-31.682 41.564-49.28-24.545 8.797-49.177 16.354-73.886 22.836-6.2 23.895-13.579 47.744-21.95 71.45z m142.811-184.048c3.738-10.23 7.01-20.757 9.923-31.509 4.203-15.754 7.362-31.647 9.57-47.442l0.404-3.272c0.599-4.879 1.136-9.748 1.566-14.75l1.076-1.654c0.225-2.38 0.399-4.762 0.532-7.209h-115.66c-0.226 48.932-4.384 97.562-12.647 145.956 35.246-10.747 70.333-24.064 105.236-40.12z m21.397-171.515a374.9 374.9 0 0 0-24.802-98.816c-36.305-16.528-72.893-30.142-109.624-40.955 9.283 46.786 15.575 93.343 18.494 139.77h115.932z m-77-190.132c-9.861-12.825-20.628-24.96-32.102-36.382a379.543 379.543 0 0 0-60.677-49.46 1309 1309 0 0 1 18.534 63.78c24.852 6.237 49.582 13.497 74.245 22.062z m-271.918 17.603v172.529h167.419c-3.574-52.03-11.55-104.407-23.562-157.143-47.652-9.442-95.652-14.439-143.857-15.386zM504.11 726.692V546.775H319.667c0.369 52.204 5.371 104.095 15.585 155.581 56.71 12.97 113.014 21.233 168.858 24.336z m217.938-15.939c11.423-54.287 16.947-108.979 17.295-163.978H569.856v181.1c51.005-1.02 101.775-6.61 152.192-17.122z m0 0" p-id="1771"></path></svg>